STARTFONT 2.1
FONT -Monotype-Plantin-Regular-R-Normal--12-120-75-75-P-66-iso8859-5
SIZE 12 75 75
FONTBOUNDINGBOX 14 15 0 -3

STARTPROPERTIES 24
FOUNDRY "Monotype"
FAMILY_NAME "Plantin"
WEIGHT_NAME "Regular"
SLANT "R"
SETWIDTH_NAME "Normal"
ADD_STYLE_NAME ""
PIXEL_SIZE 12
POINT_SIZE 120
RESOLUTION_X 75
RESOLUTION_Y 75
SPACING "P"
AVERAGE_WIDTH 66
CHARSET_REGISTRY "iso8859"
CHARSET_ENCODING "5"
FACE_NAME "Plantin ISO Latin Cyrillic"
_DEC_DEVICE_FONTNAMES "PS=plantin-latcyrillic"
COPYRIGHT "Copyright (c) 1994 Monotype Typography Ltd."
CAP_HEIGHT 10
X_HEIGHT 6
WEIGHT 10
QUAD_WIDTH 9
DEFAULT_CHAR 160
FONT_DESCENT 3
FONT_ASCENT 12
ENDPROPERTIES

CHARS 191

STARTCHAR space
ENCODING 32
SWIDTH 250 0
DWIDTH 3 0
BBX 0 0 0 0
BITMAP
ENDCHAR

STARTCHAR exclam
ENCODING 33
SWIDTH 292 0
DWIDTH 4 0
BBX 1 9 2 0
BITMAP
80
80
80
80
80
80
00
80
80
ENDCHAR

STARTCHAR quotedbl
ENCODING 34
SWIDTH 406 0
DWIDTH 5 0
BBX 3 4 1 5
BITMAP
A0
A0
A0
A0
ENDCHAR

STARTCHAR numbersign
ENCODING 35
SWIDTH 500 0
DWIDTH 7 0
BBX 7 9 0 0
BITMAP
24
24
7E
24
48
48
FC
48
48
ENDCHAR

STARTCHAR dollar
ENCODING 36
SWIDTH 552 0
DWIDTH 7 0
BBX 6 10 1 -1
BITMAP
28
7C
A8
A8
78
54
54
D4
78
50
ENDCHAR

STARTCHAR percent
ENCODING 37
SWIDTH 875 0
DWIDTH 11 0
BBX 10 9 1 0
BITMAP
6100
9200
9200
9400
6980
0A40
1240
2240
2180
ENDCHAR

STARTCHAR ampersand
ENCODING 38
SWIDTH 750 0
DWIDTH 10 0
BBX 8 9 1 0
BITMAP
30
48
48
37
52
8A
84
8E
73
ENDCHAR

STARTCHAR quoteright
ENCODING 39
SWIDTH 292 0
DWIDTH 4 0
BBX 2 3 1 6
BITMAP
C0
40
80
ENDCHAR

STARTCHAR parenleft
ENCODING 40
SWIDTH 385 0
DWIDTH 5 0
BBX 3 12 1 -3
BITMAP
20
40
40
80
80
80
80
80
80
40
40
20
ENDCHAR

STARTCHAR parenright
ENCODING 41
SWIDTH 385 0
DWIDTH 5 0
BBX 3 12 1 -3
BITMAP
80
40
40
20
20
20
20
20
20
40
40
80
ENDCHAR

STARTCHAR asterisk
ENCODING 42
SWIDTH 500 0
DWIDTH 7 0
BBX 7 6 0 3
BITMAP
10
10
FE
10
28
44
ENDCHAR

STARTCHAR plus
ENCODING 43
SWIDTH 667 0
DWIDTH 9 0
BBX 7 7 1 1
BITMAP
10
10
10
FE
10
10
10
ENDCHAR

STARTCHAR comma
ENCODING 44
SWIDTH 292 0
DWIDTH 4 0
BBX 2 3 1 -2
BITMAP
C0
40
80
ENDCHAR

STARTCHAR minus
ENCODING 45
SWIDTH 667 0
DWIDTH 9 0
BBX 7 1 1 4
BITMAP
FE
ENDCHAR

STARTCHAR period
ENCODING 46
SWIDTH 292 0
DWIDTH 4 0
BBX 2 2 1 0
BITMAP
C0
C0
ENDCHAR

STARTCHAR slash
ENCODING 47
SWIDTH 281 0
DWIDTH 4 0
BBX 4 9 0 0
BITMAP
10
10
20
20
40
40
40
80
80
ENDCHAR

STARTCHAR zero
ENCODING 48
SWIDTH 552 0
DWIDTH 7 0
BBX 5 9 1 0
BITMAP
70
88
88
88
88
88
88
88
70
ENDCHAR

STARTCHAR one
ENCODING 49
SWIDTH 552 0
DWIDTH 7 0
BBX 3 9 2 0
BITMAP
40
C0
40
40
40
40
40
40
E0
ENDCHAR

STARTCHAR two
ENCODING 50
SWIDTH 552 0
DWIDTH 7 0
BBX 5 9 1 0
BITMAP
70
88
88
08
10
20
40
88
F8
ENDCHAR

STARTCHAR three
ENCODING 51
SWIDTH 552 0
DWIDTH 7 0
BBX 5 9 1 0
BITMAP
70
88
08
08
30
08
08
88
70
ENDCHAR

STARTCHAR four
ENCODING 52
SWIDTH 552 0
DWIDTH 7 0
BBX 6 9 1 0
BITMAP
08
18
28
28
48
88
FC
08
1C
ENDCHAR

STARTCHAR five
ENCODING 53
SWIDTH 552 0
DWIDTH 7 0
BBX 5 9 1 0
BITMAP
F8
80
80
F0
88
08
08
88
70
ENDCHAR

STARTCHAR six
ENCODING 54
SWIDTH 552 0
DWIDTH 7 0
BBX 5 9 1 0
BITMAP
18
20
40
70
88
88
88
88
70
ENDCHAR

STARTCHAR seven
ENCODING 55
SWIDTH 552 0
DWIDTH 7 0
BBX 5 9 1 0
BITMAP
F8
88
08
10
10
20
20
20
20
ENDCHAR

STARTCHAR eight
ENCODING 56
SWIDTH 552 0
DWIDTH 7 0
BBX 5 9 1 0
BITMAP
70
88
88
88
70
88
88
88
70
ENDCHAR

STARTCHAR nine
ENCODING 57
SWIDTH 552 0
DWIDTH 7 0
BBX 5 9 1 0
BITMAP
70
88
88
88
88
70
10
20
C0
ENDCHAR

STARTCHAR colon
ENCODING 58
SWIDTH 292 0
DWIDTH 4 0
BBX 2 6 1 0
BITMAP
C0
00
00
00
00
C0
ENDCHAR

STARTCHAR semicolon
ENCODING 59
SWIDTH 292 0
DWIDTH 4 0
BBX 2 8 1 -2
BITMAP
C0
00
00
00
00
C0
40
80
ENDCHAR

STARTCHAR less
ENCODING 60
SWIDTH 667 0
DWIDTH 9 0
BBX 7 7 1 1
BITMAP
02
0C
30
C0
30
0C
02
ENDCHAR

STARTCHAR equal
ENCODING 61
SWIDTH 667 0
DWIDTH 9 0
BBX 7 3 1 3
BITMAP
FE
00
FE
ENDCHAR

STARTCHAR greater
ENCODING 62
SWIDTH 667 0
DWIDTH 9 0
BBX 7 7 1 1
BITMAP
80
60
18
06
18
60
80
ENDCHAR

STARTCHAR question
ENCODING 63
SWIDTH 385 0
DWIDTH 5 0
BBX 4 9 1 0
BITMAP
C0
20
10
10
60
40
00
40
40
ENDCHAR

STARTCHAR at
ENCODING 64
SWIDTH 917 0
DWIDTH 12 0
BBX 11 12 1 -3
BITMAP
0780
1840
2020
4720
4920
9920
9220
96C0
5B20
4040
3180
0E00
ENDCHAR

STARTCHAR A
ENCODING 65
SWIDTH 719 0
DWIDTH 9 0
BBX 9 9 0 0
BITMAP
0800
0800
1400
1400
2200
3E00
4100
4100
E380
ENDCHAR

STARTCHAR B
ENCODING 66
SWIDTH 688 0
DWIDTH 9 0
BBX 7 9 1 0
BITMAP
FC
42
42
42
7C
42
42
42
FC
ENDCHAR

STARTCHAR C
ENCODING 67
SWIDTH 781 0
DWIDTH 10 0
BBX 8 9 1 0
BITMAP
1D
63
41
80
80
80
41
63
1D
ENDCHAR

STARTCHAR D
ENCODING 68
SWIDTH 844 0
DWIDTH 11 0
BBX 9 9 1 0
BITMAP
FC00
4300
4100
4080
4080
4080
4100
4300
FC00
ENDCHAR

STARTCHAR E
ENCODING 69
SWIDTH 677 0
DWIDTH 9 0
BBX 7 9 1 0
BITMAP
FE
42
40
44
7C
44
40
42
FE
ENDCHAR

STARTCHAR F
ENCODING 70
SWIDTH 656 0
DWIDTH 9 0
BBX 7 9 1 0
BITMAP
FE
42
40
44
7C
44
40
40
E0
ENDCHAR

STARTCHAR G
ENCODING 71
SWIDTH 833 0
DWIDTH 11 0
BBX 9 9 1 0
BITMAP
1D00
6300
4100
8000
8380
8100
4100
6200
1C00
ENDCHAR

STARTCHAR H
ENCODING 72
SWIDTH 854 0
DWIDTH 11 0
BBX 9 9 1 0
BITMAP
E380
4100
4100
4100
7F00
4100
4100
4100
E380
ENDCHAR

STARTCHAR I
ENCODING 73
SWIDTH 375 0
DWIDTH 5 0
BBX 3 9 1 0
BITMAP
E0
40
40
40
40
40
40
40
E0
ENDCHAR

STARTCHAR J
ENCODING 74
SWIDTH 354 0
DWIDTH 5 0
BBX 4 12 0 -3
BITMAP
70
20
20
20
20
20
20
20
20
20
A0
C0
ENDCHAR

STARTCHAR K
ENCODING 75
SWIDTH 802 0
DWIDTH 10 0
BBX 9 9 1 0
BITMAP
E700
4200
4400
4800
7800
4800
4400
4200
E180
ENDCHAR

STARTCHAR L
ENCODING 76
SWIDTH 677 0
DWIDTH 9 0
BBX 7 9 1 0
BITMAP
E0
40
40
40
40
40
40
42
FE
ENDCHAR

STARTCHAR M
ENCODING 77
SWIDTH 1010 0
DWIDTH 13 0
BBX 13 9 0 0
BITMAP
7070
3060
3060
28A0
28A0
4510
4510
4210
E238
ENDCHAR

STARTCHAR N
ENCODING 78
SWIDTH 844 0
DWIDTH 11 0
BBX 9 9 1 0
BITMAP
C380
6100
5100
5100
4900
4500
4500
4300
E100
ENDCHAR

STARTCHAR O
ENCODING 79
SWIDTH 812 0
DWIDTH 11 0
BBX 9 9 1 0
BITMAP
1C00
6300
4100
8080
8080
8080
4100
6300
1C00
ENDCHAR

STARTCHAR P
ENCODING 80
SWIDTH 635 0
DWIDTH 8 0
BBX 7 9 1 0
BITMAP
FC
42
42
42
5C
40
40
40
E0
ENDCHAR

STARTCHAR Q
ENCODING 81
SWIDTH 812 0
DWIDTH 11 0
BBX 9 12 1 -3
BITMAP
1C00
6300
4100
8080
8080
8080
4100
6300
1C00
0800
0600
0180
ENDCHAR

STARTCHAR R
ENCODING 82
SWIDTH 719 0
DWIDTH 9 0
BBX 8 9 1 0
BITMAP
FC
42
42
42
7C
48
44
42
E3
ENDCHAR

STARTCHAR S
ENCODING 83
SWIDTH 594 0
DWIDTH 8 0
BBX 6 9 1 0
BITMAP
74
8C
84
60
18
04
84
C4
B8
ENDCHAR

STARTCHAR T
ENCODING 84
SWIDTH 760 0
DWIDTH 9 0
BBX 9 9 0 0
BITMAP
FF80
8880
0800
0800
0800
0800
0800
0800
1C00
ENDCHAR

STARTCHAR U
ENCODING 85
SWIDTH 833 0
DWIDTH 11 0
BBX 9 9 1 0
BITMAP
E380
4100
4100
4100
4100
4100
4100
2200
1C00
ENDCHAR

STARTCHAR V
ENCODING 86
SWIDTH 708 0
DWIDTH 9 0
BBX 9 9 0 0
BITMAP
E380
4100
4100
2200
2200
1400
1400
0800
0800
ENDCHAR

STARTCHAR W
ENCODING 87
SWIDTH 1000 0
DWIDTH 13 0
BBX 13 9 0 0
BITMAP
EDB8
4510
4510
2220
2220
1540
1540
0880
0880
ENDCHAR

STARTCHAR X
ENCODING 88
SWIDTH 781 0
DWIDTH 11 0
BBX 9 9 1 0
BITMAP
E380
4100
2200
1400
0800
1400
2200
4100
E380
ENDCHAR

STARTCHAR Y
ENCODING 89
SWIDTH 719 0
DWIDTH 9 0
BBX 9 9 0 0
BITMAP
E380
4100
2200
1400
0800
0800
0800
0800
1C00
ENDCHAR

STARTCHAR Z
ENCODING 90
SWIDTH 677 0
DWIDTH 9 0
BBX 7 9 1 0
BITMAP
FE
82
04
08
10
20
40
82
FE
ENDCHAR

STARTCHAR bracketleft
ENCODING 91
SWIDTH 375 0
DWIDTH 5 0
BBX 2 12 2 -3
BITMAP
C0
80
80
80
80
80
80
80
80
80
80
C0
ENDCHAR

STARTCHAR backslash
ENCODING 92
SWIDTH 281 0
DWIDTH 4 0
BBX 4 9 0 0
BITMAP
80
80
40
40
40
20
20
10
10
ENDCHAR

STARTCHAR bracketright
ENCODING 93
SWIDTH 375 0
DWIDTH 5 0
BBX 2 12 1 -3
BITMAP
C0
40
40
40
40
40
40
40
40
40
40
C0
ENDCHAR

STARTCHAR asciicircum
ENCODING 94
SWIDTH 469 0
DWIDTH 6 0
BBX 5 5 1 4
BITMAP
20
20
50
88
88
ENDCHAR

STARTCHAR underscore
ENCODING 95
SWIDTH 500 0
DWIDTH 7 0
BBX 7 1 0 -2
BITMAP
FE
ENDCHAR

STARTCHAR quoteleft
ENCODING 96
SWIDTH 292 0
DWIDTH 4 0
BBX 2 3 1 6
BITMAP
40
80
C0
ENDCHAR

STARTCHAR a
ENCODING 97
SWIDTH 479 0
DWIDTH 6 0
BBX 5 6 1 0
BITMAP
60
90
70
90
B0
D8
ENDCHAR

STARTCHAR b
ENCODING 98
SWIDTH 562 0
DWIDTH 7 0
BBX 6 9 0 0
BITMAP
40
C0
40
58
64
44
44
44
38
ENDCHAR

STARTCHAR c
ENCODING 99
SWIDTH 469 0
DWIDTH 6 0
BBX 5 6 1 0
BITMAP
78
88
80
80
88
70
ENDCHAR

STARTCHAR d
ENCODING 100
SWIDTH 573 0
DWIDTH 7 0
BBX 6 9 1 0
BITMAP
08
18
08
68
98
88
88
98
6C
ENDCHAR

STARTCHAR e
ENCODING 101
SWIDTH 469 0
DWIDTH 7 0
BBX 5 6 1 0
BITMAP
70
88
F8
80
88
70
ENDCHAR

STARTCHAR f
ENCODING 102
SWIDTH 312 0
DWIDTH 4 0
BBX 5 9 0 0
BITMAP
30
48
40
F0
40
40
40
40
E0
ENDCHAR

STARTCHAR g
ENCODING 103
SWIDTH 500 0
DWIDTH 7 0
BBX 6 9 1 -3
BITMAP
74
88
88
70
80
78
84
84
78
ENDCHAR

STARTCHAR h
ENCODING 104
SWIDTH 562 0
DWIDTH 7 0
BBX 7 9 0 0
BITMAP
40
C0
40
58
64
44
44
44
EE
ENDCHAR

STARTCHAR i
ENCODING 105
SWIDTH 271 0
DWIDTH 3 0
BBX 3 9 0 0
BITMAP
40
00
00
40
C0
40
40
40
E0
ENDCHAR

STARTCHAR j
ENCODING 106
SWIDTH 260 0
DWIDTH 3 0
BBX 2 12 0 -3
BITMAP
40
00
00
40
C0
40
40
40
40
40
40
80
ENDCHAR

STARTCHAR k
ENCODING 107
SWIDTH 510 0
DWIDTH 6 0
BBX 6 9 0 0
BITMAP
40
C0
40
4C
50
60
50
48
EC
ENDCHAR

STARTCHAR l
ENCODING 108
SWIDTH 271 0
DWIDTH 3 0
BBX 3 9 0 0
BITMAP
40
C0
40
40
40
40
40
40
E0
ENDCHAR

STARTCHAR m
ENCODING 109
SWIDTH 865 0
DWIDTH 11 0
BBX 11 6 0 0
BITMAP
5980
E640
4440
4440
4440
EEE0
ENDCHAR

STARTCHAR n
ENCODING 110
SWIDTH 573 0
DWIDTH 7 0
BBX 7 6 0 0
BITMAP
58
E4
44
44
44
EE
ENDCHAR

STARTCHAR o
ENCODING 111
SWIDTH 542 0
DWIDTH 7 0
BBX 5 6 1 0
BITMAP
70
88
88
88
88
70
ENDCHAR

STARTCHAR p
ENCODING 112
SWIDTH 562 0
DWIDTH 7 0
BBX 6 9 0 -3
BITMAP
58
E4
44
44
64
58
40
40
E0
ENDCHAR

STARTCHAR q
ENCODING 113
SWIDTH 562 0
DWIDTH 7 0
BBX 6 9 1 -3
BITMAP
68
98
88
88
98
68
08
08
1C
ENDCHAR

STARTCHAR r
ENCODING 114
SWIDTH 375 0
DWIDTH 5 0
BBX 5 6 0 0
BITMAP
58
E8
40
40
40
E0
ENDCHAR

STARTCHAR s
ENCODING 115
SWIDTH 396 0
DWIDTH 6 0
BBX 4 6 1 0
BITMAP
70
90
C0
30
90
E0
ENDCHAR

STARTCHAR t
ENCODING 116
SWIDTH 333 0
DWIDTH 4 0
BBX 4 7 0 0
BITMAP
40
F0
40
40
40
40
30
ENDCHAR

STARTCHAR u
ENCODING 117
SWIDTH 573 0
DWIDTH 7 0
BBX 7 6 0 0
BITMAP
CC
44
44
44
4C
36
ENDCHAR

STARTCHAR v
ENCODING 118
SWIDTH 479 0
DWIDTH 7 0
BBX 7 6 0 0
BITMAP
EE
44
28
28
10
10
ENDCHAR

STARTCHAR w
ENCODING 119
SWIDTH 729 0
DWIDTH 11 0
BBX 11 6 0 0
BITMAP
EEE0
4440
2A80
2A80
1100
1100
ENDCHAR

STARTCHAR x
ENCODING 120
SWIDTH 500 0
DWIDTH 6 0
BBX 6 6 0 0
BITMAP
EC
48
30
30
48
DC
ENDCHAR

STARTCHAR y
ENCODING 121
SWIDTH 479 0
DWIDTH 6 0
BBX 7 9 0 -3
BITMAP
EE
44
28
28
10
10
20
20
C0
ENDCHAR

STARTCHAR z
ENCODING 122
SWIDTH 437 0
DWIDTH 6 0
BBX 6 6 0 0
BITMAP
FC
88
10
20
44
F8
ENDCHAR

STARTCHAR braceleft
ENCODING 123
SWIDTH 479 0
DWIDTH 6 0
BBX 3 12 2 -3
BITMAP
20
40
40
40
40
80
80
40
40
40
40
20
ENDCHAR

STARTCHAR bar
ENCODING 124
SWIDTH 198 0
DWIDTH 3 0
BBX 1 12 1 -3
BITMAP
80
80
80
80
80
80
80
80
80
80
80
80
ENDCHAR

STARTCHAR braceright
ENCODING 125
SWIDTH 479 0
DWIDTH 6 0
BBX 3 12 1 -3
BITMAP
80
40
40
40
40
20
20
40
40
40
40
80
ENDCHAR

STARTCHAR asciitilde
ENCODING 126
SWIDTH 542 0
DWIDTH 7 0
BBX 7 2 0 3
BITMAP
72
9C
ENDCHAR

STARTCHAR space
ENCODING 160
SWIDTH 250 0
DWIDTH 4 0
BBX 0 0 0 0
BITMAP
ENDCHAR

STARTCHAR afii10023
ENCODING 161
SWIDTH 677 0
DWIDTH 9 0
BBX 7 11 1 0
BITMAP
6C
00
FE
42
40
44
7C
44
40
42
FE
ENDCHAR

STARTCHAR afii10051
ENCODING 162
SWIDTH 823 0
DWIDTH 11 0
BBX 10 9 0 0
BITMAP
FE00
9200
1000
1700
1880
1040
1040
1240
3980
ENDCHAR

STARTCHAR afii10052
ENCODING 163
SWIDTH 635 0
DWIDTH 7 0
BBX 6 12 1 0
BITMAP
10
20
00
FC
44
40
40
40
40
40
40
E0
ENDCHAR

STARTCHAR afii10053
ENCODING 164
SWIDTH 729 0
DWIDTH 9 0
BBX 7 9 1 0
BITMAP
3E
42
80
80
FC
80
80
42
3C
ENDCHAR

STARTCHAR afii10054
ENCODING 165
SWIDTH 594 0
DWIDTH 8 0
BBX 6 9 1 0
BITMAP
74
8C
84
60
18
04
84
C4
B8
ENDCHAR

STARTCHAR afii10055
ENCODING 166
SWIDTH 375 0
DWIDTH 5 0
BBX 3 9 1 0
BITMAP
E0
40
40
40
40
40
40
40
E0
ENDCHAR

STARTCHAR afii10056
ENCODING 167
SWIDTH 375 0
DWIDTH 5 0
BBX 5 11 0 0
BITMAP
D8
00
70
20
20
20
20
20
20
20
70
ENDCHAR

STARTCHAR afii10057
ENCODING 168
SWIDTH 354 0
DWIDTH 5 0
BBX 4 12 0 -3
BITMAP
70
20
20
20
20
20
20
20
20
20
A0
C0
ENDCHAR

STARTCHAR afii10058
ENCODING 169
SWIDTH 986 0
DWIDTH 13 0
BBX 13 9 0 0
BITMAP
3F80
1100
1100
1100
11F0
1108
1108
9108
63F0
ENDCHAR

STARTCHAR afii10059
ENCODING 170
SWIDTH 1015 0
DWIDTH 13 0
BBX 12 9 1 0
BITMAP
E700
4200
4200
4200
7FE0
4210
4210
4210
E7E0
ENDCHAR

STARTCHAR afii10060
ENCODING 171
SWIDTH 823 0
DWIDTH 11 0
BBX 9 9 1 0
BITMAP
FE00
9200
1000
1600
1900
1100
1100
1100
3B80
ENDCHAR

STARTCHAR afii10061
ENCODING 172
SWIDTH 750 0
DWIDTH 10 0
BBX 9 12 1 0
BITMAP
0400
0800
0000
E300
4400
4400
4800
7800
4800
4400
4200
E180
ENDCHAR

STARTCHAR hyphen
ENCODING 173
SWIDTH 365 0
DWIDTH 5 0
BBX 4 1 1 3
BITMAP
F0
ENDCHAR

STARTCHAR afii10062
ENCODING 174
SWIDTH 750 0
DWIDTH 10 0
BBX 9 12 1 0
BITMAP
2200
1C00
0000
E380
4100
2200
2200
1400
0800
0800
5000
6000
ENDCHAR

STARTCHAR afii10145
ENCODING 175
SWIDTH 854 0
DWIDTH 11 0
BBX 9 11 1 -2
BITMAP
E380
4100
4100
4100
4100
4100
4100
4100
FF80
0800
0800
ENDCHAR

STARTCHAR afii10017
ENCODING 176
SWIDTH 719 0
DWIDTH 9 0
BBX 9 9 0 0
BITMAP
0800
0800
1400
1400
2200
3E00
4100
4100
E380
ENDCHAR

STARTCHAR afii10018
ENCODING 177
SWIDTH 656 0
DWIDTH 9 0
BBX 7 9 1 0
BITMAP
FE
42
40
40
7C
42
42
42
FC
ENDCHAR

STARTCHAR afii10019
ENCODING 178
SWIDTH 688 0
DWIDTH 9 0
BBX 7 9 1 0
BITMAP
FC
42
42
42
7C
42
42
42
FC
ENDCHAR

STARTCHAR afii10020
ENCODING 179
SWIDTH 635 0
DWIDTH 7 0
BBX 6 9 1 0
BITMAP
FC
44
40
40
40
40
40
40
E0
ENDCHAR

STARTCHAR afii10021
ENCODING 180
SWIDTH 792 0
DWIDTH 11 0
BBX 10 11 0 -2
BITMAP
3FC0
1080
1080
1080
1080
2080
2080
2080
FFC0
8040
8040
ENDCHAR

STARTCHAR afii10022
ENCODING 181
SWIDTH 677 0
DWIDTH 9 0
BBX 7 9 1 0
BITMAP
FE
42
40
44
7C
44
40
42
FE
ENDCHAR

STARTCHAR afii10024
ENCODING 182
SWIDTH 1031 0
DWIDTH 13 0
BBX 13 9 0 0
BITMAP
6730
9248
1240
1240
0F80
1240
2220
4210
CF98
ENDCHAR

STARTCHAR afii10025
ENCODING 183
SWIDTH 667 0
DWIDTH 9 0
BBX 7 9 1 0
BITMAP
FC
82
02
02
1C
02
02
82
7C
ENDCHAR

STARTCHAR afii10026
ENCODING 184
SWIDTH 854 0
DWIDTH 11 0
BBX 9 9 1 0
BITMAP
E380
4100
4300
4500
4900
5100
6100
4100
E380
ENDCHAR

STARTCHAR afii10027
ENCODING 185
SWIDTH 854 0
DWIDTH 11 0
BBX 9 12 1 0
BITMAP
2200
1C00
0000
E380
4100
4300
4500
4900
5100
6100
4100
E380
ENDCHAR

STARTCHAR afii10028
ENCODING 186
SWIDTH 750 0
DWIDTH 10 0
BBX 9 9 1 0
BITMAP
E300
4400
4400
4800
7800
4800
4400
4200
E180
ENDCHAR

STARTCHAR afii10029
ENCODING 187
SWIDTH 760 0
DWIDTH 10 0
BBX 8 9 1 0
BITMAP
7F
22
22
22
22
22
22
22
C7
ENDCHAR

STARTCHAR afii10030
ENCODING 188
SWIDTH 1010 0
DWIDTH 13 0
BBX 13 9 0 0
BITMAP
7070
3060
3060
28A0
28A0
4510
4510
4210
E238
ENDCHAR

STARTCHAR afii10031
ENCODING 189
SWIDTH 854 0
DWIDTH 11 0
BBX 9 9 1 0
BITMAP
E380
4100
4100
4100
7F00
4100
4100
4100
E380
ENDCHAR

STARTCHAR afii10032
ENCODING 190
SWIDTH 813 0
DWIDTH 11 0
BBX 9 9 1 0
BITMAP
1C00
6300
4100
8080
8080
8080
4100
6300
1C00
ENDCHAR

STARTCHAR afii10033
ENCODING 191
SWIDTH 854 0
DWIDTH 11 0
BBX 9 9 1 0
BITMAP
FF80
4100
4100
4100
4100
4100
4100
4100
E380
ENDCHAR

STARTCHAR afii10034
ENCODING 192
SWIDTH 635 0
DWIDTH 8 0
BBX 7 9 1 0
BITMAP
FC
42
42
42
5C
40
40
40
E0
ENDCHAR

STARTCHAR afii10035
ENCODING 193
SWIDTH 781 0
DWIDTH 10 0
BBX 8 9 1 0
BITMAP
1D
63
41
80
80
80
41
63
1D
ENDCHAR

STARTCHAR afii10036
ENCODING 194
SWIDTH 760 0
DWIDTH 9 0
BBX 9 9 0 0
BITMAP
FF80
8880
0800
0800
0800
0800
0800
0800
1C00
ENDCHAR

STARTCHAR afii10037
ENCODING 195
SWIDTH 750 0
DWIDTH 10 0
BBX 9 9 1 0
BITMAP
E380
4100
2200
2200
1400
0800
0800
5000
6000
ENDCHAR

STARTCHAR afii10038
ENCODING 196
SWIDTH 974 0
DWIDTH 11 0
BBX 9 9 1 0
BITMAP
1C00
0800
7F00
8880
8880
8880
7F00
0800
1C00
ENDCHAR

STARTCHAR afii10039
ENCODING 197
SWIDTH 781 0
DWIDTH 11 0
BBX 9 9 1 0
BITMAP
E380
4100
2200
1400
0800
1400
2200
4100
E380
ENDCHAR

STARTCHAR afii10040
ENCODING 198
SWIDTH 854 0
DWIDTH 11 0
BBX 9 11 1 -2
BITMAP
E380
4100
4100
4100
4100
4100
4100
4100
FF80
0080
0080
ENDCHAR

STARTCHAR afii10041
ENCODING 199
SWIDTH 854 0
DWIDTH 11 0
BBX 9 9 1 0
BITMAP
E380
4100
4100
4100
4300
3D00
0100
0100
0380
ENDCHAR

STARTCHAR afii10042
ENCODING 200
SWIDTH 1052 0
DWIDTH 13 0
BBX 11 9 1 0
BITMAP
EEE0
4440
4440
4440
4440
4440
4440
4440
FFE0
ENDCHAR

STARTCHAR afii10043
ENCODING 201
SWIDTH 1052 0
DWIDTH 13 0
BBX 11 11 1 -2
BITMAP
EEE0
4440
4440
4440
4440
4440
4440
4440
FFE0
0020
0020
ENDCHAR

STARTCHAR afii10044
ENCODING 202
SWIDTH 775 0
DWIDTH 9 0
BBX 9 9 0 0
BITMAP
F800
9000
1000
1000
1F00
1080
1080
1080
3F00
ENDCHAR

STARTCHAR afii10045
ENCODING 203
SWIDTH 1031 0
DWIDTH 13 0
BBX 11 9 1 0
BITMAP
E0E0
4040
4040
4040
7C40
4240
4240
4240
FCE0
ENDCHAR

STARTCHAR afii10046
ENCODING 204
SWIDTH 632 0
DWIDTH 8 0
BBX 7 9 1 0
BITMAP
E0
40
40
40
7C
42
42
42
FC
ENDCHAR

STARTCHAR afii10047
ENCODING 205
SWIDTH 719 0
DWIDTH 9 0
BBX 7 9 1 0
BITMAP
F8
84
02
02
7E
02
02
84
78
ENDCHAR

STARTCHAR afii10048
ENCODING 206
SWIDTH 1177 0
DWIDTH 15 0
BBX 13 9 1 0
BITMAP
E1C0
4630
4410
4808
7808
4808
4410
4630
E1C0
ENDCHAR

STARTCHAR afii10049
ENCODING 207
SWIDTH 740 0
DWIDTH 9 0
BBX 8 9 0 0
BITMAP
3F
42
42
42
3E
12
22
42
C7
ENDCHAR

STARTCHAR afii10065
ENCODING 208
SWIDTH 479 0
DWIDTH 6 0
BBX 5 6 1 0
BITMAP
60
90
70
90
B0
D8
ENDCHAR

STARTCHAR afii10066
ENCODING 209
SWIDTH 542 0
DWIDTH 7 0
BBX 5 9 1 0
BITMAP
08
70
80
B0
C8
88
88
88
70
ENDCHAR

STARTCHAR afii10067
ENCODING 210
SWIDTH 552 0
DWIDTH 7 0
BBX 6 6 0 0
BITMAP
F8
44
78
44
44
F8
ENDCHAR

STARTCHAR afii10068
ENCODING 211
SWIDTH 438 0
DWIDTH 5 0
BBX 5 6 0 0
BITMAP
F8
48
40
40
40
E0
ENDCHAR

STARTCHAR afii10069
ENCODING 212
SWIDTH 542 0
DWIDTH 7 0
BBX 7 8 0 -2
BITMAP
7E
24
24
24
44
FE
82
82
ENDCHAR

STARTCHAR afii10070
ENCODING 213
SWIDTH 469 0
DWIDTH 7 0
BBX 5 6 1 0
BITMAP
70
88
F8
80
88
70
ENDCHAR

STARTCHAR afii10072
ENCODING 214
SWIDTH 854 0
DWIDTH 11 0
BBX 11 6 0 0
BITMAP
CE60
2480
1F00
2480
4440
CE60
ENDCHAR

STARTCHAR afii10073
ENCODING 215
SWIDTH 469 0
DWIDTH 7 0
BBX 5 6 1 0
BITMAP
70
88
30
08
88
70
ENDCHAR

STARTCHAR afii10074
ENCODING 216
SWIDTH 583 0
DWIDTH 7 0
BBX 7 6 0 0
BITMAP
EE
44
4C
54
64
EE
ENDCHAR

STARTCHAR afii10075
ENCODING 217
SWIDTH 583 0
DWIDTH 7 0
BBX 7 9 0 0
BITMAP
44
38
00
EE
44
4C
54
64
EE
ENDCHAR

STARTCHAR afii10076
ENCODING 218
SWIDTH 573 0
DWIDTH 7 0
BBX 7 6 0 0
BITMAP
E6
48
70
48
44
E6
ENDCHAR

STARTCHAR afii10077
ENCODING 219
SWIDTH 573 0
DWIDTH 7 0
BBX 7 6 0 0
BITMAP
7E
24
24
24
24
CE
ENDCHAR

STARTCHAR afii10078
ENCODING 220
SWIDTH 625 0
DWIDTH 7 0
BBX 7 6 0 0
BITMAP
C6
6C
6C
54
54
D6
ENDCHAR

STARTCHAR afii10079
ENCODING 221
SWIDTH 563 0
DWIDTH 7 0
BBX 7 6 0 0
BITMAP
EE
44
7C
44
44
EE
ENDCHAR

STARTCHAR afii10080
ENCODING 222
SWIDTH 542 0
DWIDTH 7 0
BBX 5 6 1 0
BITMAP
70
88
88
88
88
70
ENDCHAR

STARTCHAR afii10081
ENCODING 223
SWIDTH 573 0
DWIDTH 7 0
BBX 7 6 0 0
BITMAP
FE
44
44
44
44
EE
ENDCHAR

STARTCHAR afii10082
ENCODING 224
SWIDTH 562 0
DWIDTH 7 0
BBX 6 9 0 -3
BITMAP
58
E4
44
44
64
58
40
40
E0
ENDCHAR

STARTCHAR afii10083
ENCODING 225
SWIDTH 469 0
DWIDTH 6 0
BBX 5 6 1 0
BITMAP
78
88
80
80
88
70
ENDCHAR

STARTCHAR afii10084
ENCODING 226
SWIDTH 458 0
DWIDTH 5 0
BBX 5 6 0 0
BITMAP
F8
A8
20
20
20
70
ENDCHAR

STARTCHAR afii10085
ENCODING 227
SWIDTH 479 0
DWIDTH 6 0
BBX 7 9 0 -3
BITMAP
EE
44
28
28
10
10
20
20
C0
ENDCHAR

STARTCHAR afii10086
ENCODING 228
SWIDTH 750 0
DWIDTH 9 0
BBX 9 11 0 -3
BITMAP
1800
0800
6B00
9C80
8880
8880
9C80
6B00
0800
0800
1C00
ENDCHAR

STARTCHAR afii10087
ENCODING 229
SWIDTH 500 0
DWIDTH 6 0
BBX 6 6 0 0
BITMAP
EC
48
30
30
48
DC
ENDCHAR

STARTCHAR afii10088
ENCODING 230
SWIDTH 573 0
DWIDTH 7 0
BBX 7 8 0 -2
BITMAP
EE
44
44
44
44
FE
02
02
ENDCHAR

STARTCHAR afii10089
ENCODING 231
SWIDTH 573 0
DWIDTH 7 0
BBX 7 6 0 0
BITMAP
EE
44
4C
34
04
0E
ENDCHAR

STARTCHAR afii10090
ENCODING 232
SWIDTH 854 0
DWIDTH 11 0
BBX 11 6 0 0
BITMAP
EEE0
4440
4440
4440
4440
FFE0
ENDCHAR

STARTCHAR afii10091
ENCODING 233
SWIDTH 854 0
DWIDTH 11 0
BBX 11 8 0 -2
BITMAP
EEE0
4440
4440
4440
4440
FFE0
0020
0020
ENDCHAR

STARTCHAR afii10092
ENCODING 234
SWIDTH 638 0
DWIDTH 8 0
BBX 8 6 0 0
BITMAP
F8
90
1E
11
11
3E
ENDCHAR

STARTCHAR afii10093
ENCODING 235
SWIDTH 792 0
DWIDTH 10 0
BBX 10 6 0 0
BITMAP
E1C0
4080
7880
4480
4480
F9C0
ENDCHAR

STARTCHAR afii10094
ENCODING 236
SWIDTH 485 0
DWIDTH 7 0
BBX 6 6 0 0
BITMAP
E0
40
78
44
44
F8
ENDCHAR

STARTCHAR afii10095
ENCODING 237
SWIDTH 490 0
DWIDTH 7 0
BBX 5 6 1 0
BITMAP
70
88
38
08
88
70
ENDCHAR

STARTCHAR afii10096
ENCODING 238
SWIDTH 813 0
DWIDTH 11 0
BBX 9 6 1 0
BITMAP
E700
4880
7880
4880
4880
E700
ENDCHAR

STARTCHAR afii10097
ENCODING 239
SWIDTH 563 0
DWIDTH 7 0
BBX 7 6 0 0
BITMAP
3E
44
3C
24
44
EE
ENDCHAR

STARTCHAR afii61352
ENCODING 240
SWIDTH 1031 0
DWIDTH 13 0
BBX 12 9 0 0
BITMAP
C100
6200
5260
5290
4A90
4A90
4660
4600
82F0
ENDCHAR

STARTCHAR afii10071
ENCODING 241
SWIDTH 469 0
DWIDTH 7 0
BBX 5 8 1 0
BITMAP
50
00
70
88
F8
80
88
70
ENDCHAR

STARTCHAR afii10099
ENCODING 242
SWIDTH 513 0
DWIDTH 7 0
BBX 6 13 0 -3
BITMAP
40
40
F8
40
58
64
44
44
44
E4
08
08
10
ENDCHAR

STARTCHAR afii10100
ENCODING 243
SWIDTH 458 0
DWIDTH 5 0
BBX 5 9 0 0
BITMAP
10
20
00
F8
48
40
40
40
E0
ENDCHAR

STARTCHAR afii10101
ENCODING 244
SWIDTH 490 0
DWIDTH 7 0
BBX 5 6 1 0
BITMAP
70
88
E0
80
88
70
ENDCHAR

STARTCHAR afii10102
ENCODING 245
SWIDTH 396 0
DWIDTH 6 0
BBX 4 6 1 0
BITMAP
70
90
C0
30
90
E0
ENDCHAR

STARTCHAR afii10103
ENCODING 246
SWIDTH 271 0
DWIDTH 3 0
BBX 3 9 0 0
BITMAP
40
00
00
40
C0
40
40
40
E0
ENDCHAR

STARTCHAR afii10104
ENCODING 247
SWIDTH 271 0
DWIDTH 3 0
BBX 3 8 0 0
BITMAP
A0
00
40
C0
40
40
40
E0
ENDCHAR

STARTCHAR afii10105
ENCODING 248
SWIDTH 260 0
DWIDTH 3 0
BBX 2 12 0 -3
BITMAP
40
00
00
40
C0
40
40
40
40
40
40
80
ENDCHAR

STARTCHAR afii10106
ENCODING 249
SWIDTH 831 0
DWIDTH 11 0
BBX 10 6 0 0
BITMAP
7E00
2400
2780
2440
2440
CF80
ENDCHAR

STARTCHAR afii10107
ENCODING 250
SWIDTH 814 0
DWIDTH 12 0
BBX 10 6 1 0
BITMAP
EE00
4400
7F80
4440
4440
EF80
ENDCHAR

STARTCHAR afii10108
ENCODING 251
SWIDTH 573 0
DWIDTH 7 0
BBX 7 10 0 0
BITMAP
40
40
F8
40
58
64
44
44
44
EE
ENDCHAR

STARTCHAR afii10109
ENCODING 252
SWIDTH 573 0
DWIDTH 7 0
BBX 7 9 0 0
BITMAP
08
10
00
E6
48
70
48
44
E6
ENDCHAR

STARTCHAR section
ENCODING 253
SWIDTH 427 0
DWIDTH 7 0
BBX 5 12 1 -3
BITMAP
30
48
C0
A0
90
50
48
28
28
18
90
60
ENDCHAR

STARTCHAR afii10110
ENCODING 254
SWIDTH 479 0
DWIDTH 6 0
BBX 7 12 0 -3
BITMAP
44
38
00
EE
44
28
28
10
10
20
20
C0
ENDCHAR

STARTCHAR afii10193
ENCODING 255
SWIDTH 573 0
DWIDTH 7 0
BBX 7 8 0 -2
BITMAP
EE
44
44
44
44
FE
10
10
ENDCHAR
ENDFONT
